<svg xmlns="http://www.w3.org/2000/svg" xmlns:xlink="http://www.w3.org/1999/xlink" width="139" height="28" viewBox="0 0 139 28">
    <defs>
        <linearGradient id="prefix__b" x1="97.517%" x2="-12.406%" y1="50%" y2="48.805%">
            <stop offset="0%" stop-color="#D20051"/>
            <stop offset="100%" stop-color="#FFA300"/>
        </linearGradient>
        <path id="prefix__a" d="M4.851 27.184c2.135 0 3.239-1.251 3.239-3.422v-3.46h2.87c6.734 0 10.304-2.796 10.304-8.464 0-5.704-3.717-8.648-10.525-8.648H4.446C2.018 3.19.693 4.626.693 7.275v16.487c0 2.244 1.14 3.422 3.091 3.422h1.067zm5.815-12.254H7.979V8.747h2.576c2.319 0 3.533 1.104 3.533 3.091 0 1.988-1.178 3.092-3.422 3.092zm16.67 12.254c2.134 0 2.87-1.178 2.87-3.422v-9.9l2.466 6.698c.405.957.331 1.803 3.091 1.803 2.76 0 2.797-.883 3.128-1.803l2.503-6.992v10.194c0 2.244.846 3.422 2.87 3.422h1.178c2.097 0 2.87-1.178 2.87-3.422V6.539c0-2.355-1.178-3.533-3.386-3.533h-2.06c-1.693 0-2.466.368-3.165 1.988l-3.901 9.53-3.864-9.53c-.662-1.51-1.325-1.988-3.275-1.988h-2.098c-2.097 0-3.275 1.178-3.275 3.533v17.223c0 2.244.846 3.422 2.87 3.422h1.178zm43.94.147c2.207 0 4.194-1.693 3.937-2.355L67.19 5.03c-.368-1.177-1.214-2.024-4.563-2.024-3.312 0-4.305.847-4.673 2.024l-7.728 20.02c-.258.662 1.766 2.281 3.79 2.281 1.582 0 3.128-.883 4.011-3.422l.663-1.84h7.69l.663 1.766c1.03 2.65 2.687 3.496 4.232 3.496zm-6.22-10.561h-5.115L62.48 9.85l2.576 6.919zm26.717 10.524c2.097 0 4.085-1.766 3.9-2.134l-5.372-7.544 4.894-6.955c.184-.405-1.693-2.171-3.827-2.171-1.214 0-2.723.552-3.717 2.134l-3.643 5.483V6.466c0-4.306-2.318-5.373-4.342-5.373-1.436 0-2.724.552-2.724.81v21.859c0 2.612 1.325 3.422 3.202 3.422h.736c1.803 0 3.128-.883 3.128-3.422v-4.306l3.938 5.704c1.03 1.582 2.539 2.134 3.827 2.134zm14.205.221c3.348 0 5.483-1.656 5.483-4.011 0-1.766-1.435-2.76-1.546-2.576-.478.626-1.067 1.104-2.024 1.104-1.067 0-1.545-.626-1.545-1.84v-6.109h2.17c1.878 0 2.834-.883 2.834-2.539v-.405c0-1.582-.883-2.392-2.76-2.392h-2.097V6.981c0-2.613-1.288-3.423-3.165-3.423h-.589c-2.024 0-3.165 1.178-3.165 3.423v1.766h-.404c-1.914 0-2.87.883-2.87 2.54v.404c0 1.546.993 2.392 2.87 2.392h.404v6.882c0 4.342 2.061 6.55 6.404 6.55zm11.481-20.829c2.282 0 3.717-1.288 3.717-3.348 0-2.061-1.472-3.312-3.827-3.312-2.282 0-3.717 1.288-3.717 3.312 0 2.06 1.472 3.348 3.827 3.348zm.368 20.498c1.803 0 3.091-.883 3.091-3.422V11.949c0-2.613-1.25-3.386-3.164-3.386h-.736c-1.804 0-3.165.847-3.165 3.386v11.813c0 2.612 1.325 3.422 3.238 3.422h.736zm12.439 0c1.913 0 3.164-.81 3.164-3.422v-9.679h1.252c1.913 0 2.87-.846 2.87-2.392v-.405c0-1.656-.957-2.539-2.87-2.539h-1.546v-.589c0-1.508.626-2.024 1.803-2.024.957 0 1.73.368 2.245.847.11.11 1.362-1.178 1.362-2.723 0-1.767-1.546-3.35-5.226-3.35-4.011 0-6.955 1.657-6.955 7.324v.515h-.736c-1.914 0-2.87.847-2.87 2.392v.405c0 1.656.956 2.54 2.87 2.54h.736v9.678c0 2.539 1.361 3.422 3.165 3.422h.736z"/>
    </defs>
    <g fill="none">
        <use fill="#79838E" xlink:href="#prefix__a"/>
        <use fill="url(#prefix__b)" xlink:href="#prefix__a"/>
    </g>
</svg>
